<?xml version="1.0" encoding="iso-8859-1"?>
<!-- Uploaded to: SVG Repo, www.svgrepo.com, Generator: SVG Repo Mixer Tools -->
<svg height="800px" width="800px" version="1.1" id="Layer_1" xmlns="http://www.w3.org/2000/svg" xmlns:xlink="http://www.w3.org/1999/xlink" 
	 viewBox="0 0 512.002 512.002" xml:space="preserve">
<path style="fill:#77757E;" d="M208.79,46.666c16.638-3.945,33.994-6.043,51.839-6.043c123.427,0,223.485,100.057,223.485,223.485
	S384.056,487.592,260.629,487.592S37.144,387.534,37.144,264.107c0-89.838,53.008-167.294,129.454-202.799
	C166.598,61.308,190.326,51.044,208.79,46.666z"/>
<circle style="fill:#C6C3CB;" cx="260.627" cy="264.109" r="194.541"/>
<path style="fill:#57545C;" d="M226.332,328.387h56.003v-44.002h-52.108h-29.239c-8.154,0-14.764-6.61-14.764-14.764v-29.239V196.38
	v-44.002h36.834h103.279v44.002h-96.11v29.239c0,8.154,6.61,14.764,14.764,14.764h81.346v1.158v42.844v44.002v44v0.002H186.225
	v-44.002L226.332,328.387L226.332,328.387z"/>
<path style="opacity:0.21;fill:#1D1D20;enable-background:new    ;" d="M380.412,75.068c21.811,34.507,34.445,75.393,34.445,119.234
	c0,123.427-100.058,223.485-223.485,223.485c-43.841,0-84.727-12.634-119.234-34.445c39.594,62.643,109.454,104.251,189.039,104.251
	c123.427,0,223.485-100.058,223.485-223.485C484.663,184.522,443.054,114.662,380.412,75.068z"/>
<path d="M203.603,285.615h73.734v28.779h-48.39c-4.204,0-7.612,3.407-7.612,7.612c0,4.205,3.408,7.612,7.612,7.612h56.003
	c4.204,0,7.612-3.407,7.612-7.612v-44.003c0-4.205-3.408-7.612-7.612-7.612h-81.347c-3.943,0-7.152-3.208-7.152-7.152V145.996
	c0-4.205-3.408-7.612-7.612-7.612c-4.204,0-7.612,3.407-7.612,7.612v117.242C181.227,275.576,191.264,285.615,203.603,285.615z"/>
<path d="M504.388,258.811H491.66c-1.335-59.745-25.224-115.716-67.622-158.114c-41.849-41.848-96.922-65.655-155.794-67.549V11.673
	c0-4.205-3.408-7.612-7.612-7.612s-7.612,3.407-7.612,7.612v21.471c-15.54,0.505-30.976,2.55-45.99,6.115
	c-4.09,0.971-6.619,5.075-5.647,9.165c0.971,4.09,5.077,6.62,9.165,5.646c13.863-3.293,28.117-5.191,42.472-5.69v13.732
	C146.821,66.065,61.3,152.316,58.546,258.811H44.83c2.021-81.653,50.616-156.062,124.975-190.599
	c3.813-1.77,5.469-6.297,3.698-10.11c-1.771-3.813-6.298-5.471-10.11-3.698c-39.41,18.303-72.802,47.273-96.567,83.776
	c-23.437,35.997-36.252,77.599-37.225,120.632H7.612c-4.204,0-7.612,3.407-7.612,7.612s3.408,7.612,7.612,7.612h22.142
	c2.436,58.001,26.165,112.182,67.465,153.482c41.85,41.85,96.927,65.657,155.802,67.549v5.262c0,4.205,3.408,7.612,7.612,7.612
	s7.612-3.407,7.612-7.612v-5.262c58.872-1.894,113.946-25.701,155.794-67.549c41.3-41.301,65.029-95.481,67.465-153.482h12.885
	c4.204,0,7.612-3.407,7.612-7.612S508.592,258.811,504.388,258.811z M476.433,258.811h-13.723
	C459.958,152.318,374.44,66.069,268.244,62.114v-13.73C382.006,52.35,473.672,144.753,476.433,258.811z M268.244,373.619
	l60.707-0.001c4.204,0,7.612-3.408,7.612-7.612v-91.969h110.727c-5.046,95.955-82.792,172.954-179.047,176.831L268.244,373.619
	L268.244,373.619z M336.564,258.811v-24.81c0-4.205-3.408-7.612-7.612-7.612h-81.346c-3.943,0-7.152-3.208-7.152-7.152v-21.626
	h88.497c4.204,0,7.612-3.407,7.612-7.612v-44.002c0-4.205-3.408-7.612-7.612-7.612h-60.707V77.349
	c97.798,3.94,176.488,83.365,179.231,181.462L336.564,258.811L336.564,258.811z M253.02,77.349v61.036h-27.347
	c-4.204,0-7.612,3.407-7.612,7.612c0,4.205,3.408,7.612,7.612,7.612h95.666v28.778h-88.497c-4.204,0-7.612,3.407-7.612,7.612v29.238
	c0,12.338,10.038,22.376,22.376,22.376h73.733v116.783H196.452v-36.39c0-4.205-3.408-7.612-7.612-7.612
	c-4.204,0-7.612,3.407-7.612,7.612v44.002c0,2.019,0.802,3.954,2.23,5.383c1.428,1.427,3.364,2.229,5.382,2.229l64.18-0.001v77.248
	c-96.258-3.874-174.007-80.875-179.054-176.832h80.32c4.204,0,7.612-3.407,7.612-7.612s-3.408-7.612-7.612-7.612H73.781
	C76.524,160.711,155.218,81.285,253.02,77.349z M44.993,274.036h13.73c5.072,104.354,89.642,188.172,194.297,192.066v13.729
	C140.799,475.922,50.085,385.957,44.993,274.036z M268.244,479.83v-13.729c104.651-3.898,189.218-87.715,194.29-192.066h13.73
	C471.171,385.954,380.462,475.918,268.244,479.83z"/>
</svg>